<?xml version="1.0" encoding="UTF-8"?><svg id="a" xmlns="http://www.w3.org/2000/svg" viewBox="0 0 16 16"><g style="opacity:.2;"><path d="M6.99,3.28c-2.11.45-3.72,2.28-3.82,4.5h-.74c.1-2.56,1.93-4.68,4.36-5.21l.19.71Z" style="fill:#198754; stroke-width:0px;"/><path d="M5.72,5.57c-.6.56-.98,1.34-1.04,2.2h-.79c.06-1.08.53-2.05,1.27-2.75l.56.55Z" style="fill:#198754; stroke-width:0px;"/><path d="M6.68,9.38l-.54.52c-.5-.48-.8-1.16-.8-1.91,0-.07,0-.15,0-.22h.75c0,.07-.01.15-.01.22,0,.54.23,1.03.59,1.38Z" style="fill:#198754; stroke-width:0px;"/></g><path d="M14.94,8c0,2.22-1.04,4.19-2.66,5.46l-.4-.56c1.45-1.15,2.38-2.92,2.38-4.91,0-1.64-.63-3.13-1.66-4.25l.56-.4c1.11,1.23,1.78,2.86,1.78,4.64Z" style="fill:#198754; stroke-width:0px;"/><path d="M13.56,8c0,.53-.07,1.04-.21,1.53l-.7-.23c.12-.41.18-.85.18-1.3,0-2.12-1.37-3.92-3.27-4.57l.27-.69c2.17.76,3.73,2.82,3.73,5.25Z" style="fill:#198754; stroke-width:0px;"/><path d="M12.11,7.78h-.79c-.11-1.73-1.56-3.11-3.32-3.11-.23,0-.46.02-.68.07l-.26-.75c.3-.07.62-.11.94-.11,2.2,0,4,1.72,4.11,3.89Z" style="fill:#198754; stroke-width:0px;"/><path d="M10.01,6.26l-.56.5c-.35-.41-.87-.67-1.46-.67-.49,0-.94.18-1.28.49l-.53-.53c.48-.44,1.11-.71,1.81-.71.8,0,1.53.36,2.01.92Z" style="fill:#198754; stroke-width:0px;"/><g style="opacity:.5;"><path d="M10.31,1.46l-.29.62c-.63-.22-1.31-.33-2.02-.33-3.45,0-6.25,2.8-6.25,6.25,0,.96.21,1.86.6,2.67l-.6.33c-.44-.91-.68-1.93-.68-3C1.06,4.17,4.17,1.06,8,1.06c.81,0,1.59.14,2.31.39Z" style="fill:#198754; stroke-width:0px;"/><path d="M4.55,11.37l-.48.56c-1.01-1.01-1.63-2.4-1.63-3.93,0-.07,0-.15,0-.22h.74c0,.07,0,.15,0,.22,0,1.31.52,2.5,1.37,3.37Z" style="fill:#198754; stroke-width:0px;"/><path d="M11.44,12.38c-.71.56-1.56.95-2.5,1.11l-.13-.73c.77-.13,1.49-.45,2.09-.9l.53.52Z" style="fill:#198754; stroke-width:0px;"/><path d="M5.7,10.41l-.6.52c-.75-.75-1.22-1.78-1.22-2.92,0-.07,0-.15,0-.22h.79c0,.07,0,.15,0,.22,0,.95.39,1.8,1.03,2.41Z" style="fill:#198754; stroke-width:0px;"/><path d="M11.94,9.2c-.24.8-.73,1.5-1.37,2.02l-.52-.59c.55-.43.97-1.03,1.16-1.72l.74.29Z" style="fill:#198754; stroke-width:0px;"/><path d="M3.63,12.47l-.5.47c-.57-.56-1.04-1.22-1.39-1.94l.6-.33c.32.68.76,1.28,1.28,1.8Z" style="fill:#198754; stroke-width:0px;"/><path d="M12.28,13.46c-1.18.92-2.66,1.48-4.28,1.48-.71,0-1.39-.11-2.03-.3l.17-.66c.59.18,1.21.28,1.86.28,1.46,0,2.81-.5,3.88-1.35l.4.56Z" style="fill:#198754; stroke-width:0px;"/><path d="M6.63,12.63l-.28.69c-.88-.27-1.66-.75-2.29-1.38l.48-.56c.57.58,1.28,1.02,2.08,1.26Z" style="fill:#198754; stroke-width:0px;"/><path d="M13.35,9.53c-.33,1.14-1.01,2.13-1.91,2.85l-.53-.52c.83-.63,1.46-1.52,1.75-2.55l.7.23Z" style="fill:#198754; stroke-width:0px;"/><path d="M8.74,12.05c-.24.04-.48.07-.74.07-1.13,0-2.15-.46-2.9-1.19l.6-.52c.6.57,1.41.92,2.3.92.21,0,.41-.02.6-.05l.14.78Z" style="fill:#198754; stroke-width:0px;"/><path d="M12.12,8c0,.42-.06.82-.18,1.2l-.74-.29c.08-.29.13-.59.13-.91,0-.07,0-.15,0-.22h.79c0,.07,0,.15,0,.22Z" style="fill:#198754; stroke-width:0px;"/><path d="M9.51,10.19c-.43.3-.95.47-1.51.47-.72,0-1.38-.29-1.86-.76l.54-.52c.34.33.81.53,1.32.53.38,0,.73-.11,1.03-.3l.48.58Z" style="fill:#198754; stroke-width:0px;"/><path d="M10.66,8c0,.22-.03.44-.08.64l-.72-.21c.03-.14.05-.28.05-.43,0-.48-.17-.91-.46-1.24l.56-.5c.4.47.65,1.08.65,1.74Z" style="fill:#198754; stroke-width:0px;"/></g></svg>