<?xml version="1.0" encoding="UTF-8"?><svg id="a" xmlns="http://www.w3.org/2000/svg" viewBox="0 0 40 40"><path d="M17.67,9.05c-4.9,1.04-8.61,5.28-8.85,10.43h-1.71c.23-5.94,4.48-10.85,10.11-12.08l.45,1.65Z" style="fill:#8c8c8c; stroke-width:0px;"/><path d="M14.72,14.38c-1.38,1.3-2.28,3.1-2.42,5.11h-1.83c.13-2.51,1.24-4.76,2.94-6.39l1.31,1.28Z" style="fill:#8c8c8c; stroke-width:0px;"/><path d="M16.93,23.21l-1.24,1.22c-1.15-1.12-1.87-2.69-1.87-4.42,0-.17,0-.35.02-.52h1.75c-.02.17-.03.34-.03.52,0,1.26.53,2.4,1.37,3.21Z" style="fill:#c471ed; stroke-width:0px;"/><path d="M36.08,20c0,5.14-2.41,9.72-6.17,12.66l-.93-1.29c3.36-2.65,5.51-6.76,5.51-11.37,0-3.8-1.46-7.26-3.85-9.84l1.31-.92c2.57,2.85,4.13,6.62,4.13,10.76Z" style="fill:#000; stroke-width:0px;"/><path d="M32.9,20c0,1.23-.17,2.42-.49,3.54l-1.63-.53c.27-.96.41-1.97.41-3.02,0-4.91-3.17-9.09-7.57-10.59l.63-1.59c5.03,1.76,8.65,6.55,8.65,12.18Z" style="fill:#000; stroke-width:0px;"/><path d="M29.53,19.48h-1.83c-.27-4.02-3.61-7.2-7.7-7.2-.54,0-1.07.06-1.58.16l-.6-1.74c.7-.17,1.43-.25,2.19-.25,5.1,0,9.26,4,9.53,9.03Z" style="fill:#000; stroke-width:0px;"/><path d="M24.67,15.96l-1.3,1.16c-.82-.95-2.02-1.56-3.38-1.56-1.14,0-2.17.43-2.96,1.13l-1.23-1.23c1.1-1.02,2.57-1.64,4.19-1.64,1.87,0,3.54.83,4.67,2.13Z" style="fill:#12c2e9; stroke-width:0px;"/><path d="M25.35,4.83l-.68,1.45c-1.47-.5-3.04-.77-4.68-.77-8.01,0-14.5,6.49-14.5,14.5,0,2.22.5,4.32,1.39,6.19l-1.39.76c-1.01-2.1-1.58-4.46-1.58-6.96C3.92,11.12,11.12,3.92,20,3.92c1.88,0,3.68.32,5.36.91Z" style="fill:#444; stroke-width:0px;"/><path d="M11.99,27.82l-1.12,1.3c-2.33-2.33-3.77-5.56-3.77-9.12,0-.17,0-.34.01-.52h1.71c0,.17-.01.34-.01.52,0,3.04,1.21,5.8,3.18,7.82Z" style="fill:#444; stroke-width:0px;"/><path d="M27.97,30.14c-1.65,1.3-3.63,2.2-5.79,2.57l-.3-1.68c1.8-.3,3.45-1.04,4.84-2.09l1.24,1.2Z" style="fill:#444; stroke-width:0px;"/><path d="M14.67,25.58l-1.39,1.2c-1.74-1.73-2.82-4.13-2.82-6.78,0-.17,0-.34.01-.52h1.83c-.01.17-.02.34-.02.52,0,2.19.92,4.17,2.39,5.58Z" style="fill:#444; stroke-width:0px;"/><path d="M29.13,22.79c-.57,1.87-1.69,3.49-3.18,4.67l-1.22-1.37c1.28-1,2.24-2.38,2.69-3.99l1.7.68Z" style="fill:#444; stroke-width:0px;"/><path d="M9.87,30.37l-1.15,1.09c-1.32-1.3-2.41-2.82-3.22-4.5l1.39-.76c.74,1.57,1.75,2.98,2.98,4.17Z" style="fill:#444; stroke-width:0px;"/><path d="M29.92,32.66c-2.73,2.14-6.18,3.42-9.92,3.42-1.64,0-3.22-.25-4.72-.7l.4-1.54c1.36.43,2.82.65,4.32.65,3.4,0,6.52-1.17,8.99-3.12l.93,1.29Z" style="fill:#444; stroke-width:0px;"/><path d="M16.82,30.74l-.64,1.59c-2.03-.63-3.85-1.74-5.31-3.21l1.12-1.3c1.32,1.35,2.97,2.37,4.83,2.92Z" style="fill:#444; stroke-width:0px;"/><path d="M32.41,23.54c-.75,2.65-2.33,4.94-4.44,6.6l-1.24-1.2c1.93-1.46,3.38-3.53,4.05-5.92l1.63.53Z" style="fill:#444; stroke-width:0px;"/><path d="M21.71,29.39c-.55.1-1.12.15-1.71.15-2.62,0-4.99-1.06-6.72-2.76l1.39-1.2c1.39,1.32,3.26,2.14,5.33,2.14.48,0,.94-.04,1.39-.13l.31,1.8Z" style="fill:#444; stroke-width:0px;"/><path d="M29.54,20c0,.97-.14,1.9-.41,2.79l-1.7-.68c.19-.67.29-1.38.29-2.11,0-.17,0-.35-.02-.52h1.83c0,.17.01.34.01.52Z" style="fill:#444; stroke-width:0px;"/><path d="M23.5,25.09c-1,.69-2.2,1.09-3.5,1.09-1.68,0-3.2-.67-4.31-1.75l1.24-1.22c.8.76,1.88,1.23,3.07,1.23.88,0,1.7-.26,2.39-.7l1.11,1.35Z" style="fill:#f64f59; stroke-width:0px;"/><path d="M26.18,20c0,.51-.06,1.01-.18,1.49l-1.67-.48c.08-.32.11-.66.11-1.01,0-1.1-.4-2.11-1.06-2.89l1.3-1.16c.94,1.08,1.51,2.5,1.51,4.05Z" style="fill:#c471ed; stroke-width:0px;"/></svg>